<svg xmlns="http://www.w3.org/2000/svg" 
    xmlns:xlink="http://www.w3.org/1999/xlink" width="274.586" height="102.413" viewBox="0 0 274.586 102.413">
    <defs>
        <style>.a{fill:#fff;}.a,.b,.d{fill-rule:evenodd;}.b,.c{fill:#fdcb6e;}.d{fill:url(#a);}</style>
        <linearGradient id="a" x1="-0.006" y1="-0.048" x2="0.925" y2="-1.09" gradientUnits="objectBoundingBox">
            <stop offset="0" stop-color="#fcf0c7"/>
            <stop offset="0.026" stop-color="#fbeab9"/>
            <stop offset="0.078" stop-color="#fae1a3"/>
            <stop offset="0.14" stop-color="#f9da92"/>
            <stop offset="0.217" stop-color="#f8d687"/>
            <stop offset="0.324" stop-color="#f8d380"/>
            <stop offset="0.622" stop-color="#f8d27e"/>
            <stop offset="0.651" stop-color="#f8d07a"/>
            <stop offset="0.682" stop-color="#f7ca6d"/>
            <stop offset="0.714" stop-color="#f6c059"/>
            <stop offset="0.714" stop-color="#f6c058"/>
        </linearGradient>
    </defs>
    <g transform="translate(-276 -116.096)">
        <g transform="translate(2932.173 -982.401)">
            <g transform="translate(-2566.173 1111.769)">
                <g transform="translate(0 42.949)">
                    <path class="a" d="M-1690.135,1795.935c6.643,0,11.306-3.431,11.306-9.546v-.088c0-5.367-3.519-7.61-9.766-9.238-5.323-1.364-6.643-2.024-6.643-4.047v-.088c0-1.5,1.364-2.683,3.959-2.683s5.279,1.144,8.006,3.035l3.519-5.1a17.825,17.825,0,0,0-11.437-3.915c-6.291,0-10.778,3.7-10.778,9.282v.088c0,6.115,4,7.83,10.206,9.414,5.147,1.32,6.2,2.2,6.2,3.915v.088c0,1.8-1.672,2.9-4.443,2.9-3.519,0-6.423-1.452-9.194-3.739l-4,4.795A19.6,19.6,0,0,0-1690.135,1795.935Z" transform="translate(1703.2 -1764.173)"/>
                    <path class="a" d="M-1434.191,1763.462c-9.5,0-16.408,7.17-16.408,15.925v.088c0,8.754,6.818,15.837,16.321,15.837s16.409-7.171,16.409-15.925v-.088C-1417.871,1770.544-1424.689,1763.462-1434.191,1763.462Zm9.238,16.013c0,5.279-3.783,9.59-9.238,9.59a9.356,9.356,0,0,1-9.326-9.678v-.088c0-5.279,3.783-9.59,9.238-9.59a9.356,9.356,0,0,1,9.326,9.678Z" transform="translate(1478.38 -1763.462)"/>
                    <path class="a" d="M-1094.871,1799.539c8.27,0,13.505-4.575,13.505-13.9v-17.376h-6.775v17.64c0,4.883-2.507,7.39-6.643,7.39s-6.643-2.6-6.643-7.61v-17.42h-6.775v17.6c0,9.062,5.059,13.681,13.329,13.681Z" transform="translate(1173.636 -1767.733)"/>
                    <path class="a" d="M-784.308,1788.057a9.563,9.563,0,0,0,6.6-9.546v-.088a9.667,9.667,0,0,0-2.639-7.039c-2.024-2.023-5.059-3.123-8.974-3.123H-803.4v30.794h6.775V1789.2h5.323l6.6,9.854h7.918Zm-.264-9.194c0,2.6-1.892,4.355-5.191,4.355h-6.863v-8.842h6.731c3.3,0,5.323,1.5,5.323,4.4Z" transform="translate(902.358 -1767.733)"/>
                    <path class="a" d="M-520.307,1795.311a15.74,15.74,0,0,0,12.625-5.5l-4.311-4.355c-2.419,2.2-4.575,3.607-8.094,3.607-5.279,0-8.93-4.4-8.93-9.678v-.088c0-5.279,3.739-9.59,8.93-9.59,3.079,0,5.5,1.32,7.874,3.475l4.311-4.971c-2.859-2.815-6.335-4.751-12.141-4.751a15.651,15.651,0,0,0-16.057,15.925v.088a15.544,15.544,0,0,0,15.793,15.837Z" transform="translate(664.454 -1763.462)"/>
                    <path class="a" d="M-238,1799.055h23.447v-6.027h-16.717v-6.467h14.517v-6.027h-14.517v-6.247h16.5v-6.027H-238Z" transform="translate(399.139 -1767.734)"/>
                </g>
                <g transform="translate(0.044 0)">
                    <path class="b" d="M-1690.395,1404.611c5.939,0,10.206-3.431,10.206-8.4v-.088c0-4.487-2.991-7.038-10.118-8.49-7.3-1.5-8.974-3.475-8.974-6.731v-.088c0-3.211,2.991-5.807,7.522-5.807a13.255,13.255,0,0,1,9.194,3.475l1.452-1.8a15.35,15.35,0,0,0-10.558-3.739c-5.719,0-9.9,3.519-9.9,8.094v.088c0,4.663,2.991,7.17,10.382,8.666,6.995,1.408,8.71,3.3,8.71,6.555v.088c0,3.519-3.167,6.115-7.786,6.115-4.531,0-7.654-1.452-11.042-4.575l-1.5,1.716A17.528,17.528,0,0,0-1690.395,1404.611Z" transform="translate(1702.8 -1372.938)"/>
                    <path class="b" d="M-1305.3,1407.732h2.2v-26.746l12.185,17.728h.176l12.185-17.728v26.746h2.288v-30.794h-2.156l-12.361,18.212-12.361-18.212h-2.156Z" transform="translate(1349.016 -1376.499)"/>
                    <rect class="c" width="2.288" height="30.794" transform="translate(96.021 0.44)"/>
                    <path class="b" d="M-614.766,1407.732h2.288V1379.05h10.734v-2.112H-625.5v2.112h10.734Z" transform="translate(743.979 -1376.499)"/>
                    <path class="b" d="M-226.8,1407.732h22.127v-2.112h-19.84v-12.361h17.64v-2.112h-17.64v-12.1h19.62v-2.112H-226.8Z" transform="translate(389.126 -1376.499)"/>
                </g>
            </g>
        </g>
        <g transform="translate(2948.808 -963.401)">
            <g transform="translate(-2672.808 1079.497)">
                <path class="d" d="M-2632.5,1079.5l21.2,5.674s-19.594,28.784-19.577,28.792c.065.04,9.643,2.562,9.676,2.587.008.008-6.079,8.342-6.176,8.309-9.958-3.379-13.191-3.839-17.071-5.214-3.193-1.132-6.572-2.344-6.563-5.836C-2645.017,1102.728-2632.5,1079.5-2632.5,1079.5Zm-6.458,60.906c-.954,1.285-1.536,2.061-1.536,2.061-.032.032,5.521,1.487,5.529,1.479.089-.057-37.643,37.772-37.845,37.966-.178.162,20.256-35.266,20.321-35.258.016,0-6.919-1.867-6.911-1.851s2.611-4.05,5.61-8.762" transform="translate(2672.808 -1079.497)"/>
                <path class="a" d="M-2590.491,1314.753c16.11,0,27.418-8.309,27.418-23.126v-.21c0-13.006-8.536-18.438-23.683-22.382-12.909-3.306-16.11-4.906-16.11-9.8v-.21a5.791,5.791,0,0,1,2.659-4.761c-.041.024,8.73-16.206,8.722-16.206-.663-.049-1.042-.024-1.568-.024-15.253,0-26.141,8.956-26.141,22.487v.21c0,14.816,9.708,18.971,24.75,22.811,12.48,3.2,15.043,5.327,15.043,9.481v.21c0,4.373-4.058,7.032-10.775,7.032a23.317,23.317,0,0,1-4.179-.291c-.065-.008-12.108,12.084-12.052,12.1a50.775,50.775,0,0,0,15.916,2.684Z" transform="translate(2623.528 -1225.208)"/>
                <path class="a" d="M-2105.667,1316.3s1.269.744,2.441,1.544c1.115.76,2.134,1.609,2.134,1.609l-8.568,12.4s-.962-.687-2.118-1.479a21.86,21.86,0,0,0-2.417-1.4Z" transform="translate(2159.347 -1297.156)"/>
                <path class="a" d="M-2648.215,1913.373s-2.813-1.706-3.993-2.514c-1.116-.76-4.187-3.346-4.187-3.346l9.748-11.615s1.843,1.576,3.007,2.36c1.148.784,3.055,1.972,3.055,1.972Z" transform="translate(2657.722 -1829.907)"/>
            </g>
        </g>
    </g>
</svg>